<?xml version="1.0" standalone="no"?>
<!DOCTYPE svg PUBLIC "-//W3C//DTD SVG 20010904//EN"
 "http://www.w3.org/TR/2001/REC-SVG-20010904/DTD/svg10.dtd">
<svg version="1.0" xmlns="http://www.w3.org/2000/svg"
 width="1280.000000pt" height="1280.000000pt" viewBox="0 0 1280.000000 1280.000000"
 preserveAspectRatio="xMidYMid meet">
<metadata>
Created by potrace 1.14, written by Peter Selinger 2001-2017
</metadata>
<g transform="translate(0.000000,1280.000000) scale(0.100000,-0.100000)"
fill="#000000" stroke="none">
<path d="M4856 9999 c-86 -35 -154 -97 -203 -184 -25 -45 -28 -59 -28 -145 0
-84 4 -102 28 -151 39 -79 106 -145 183 -181 55 -26 78 -31 142 -31 65 0 87 5
144 31 85 39 159 107 188 174 18 42 21 66 18 137 -2 73 -8 97 -36 153 -41 84
-103 148 -181 187 -51 26 -71 31 -133 30 -49 0 -89 -7 -122 -20z"/>
<path d="M5899 9861 c-122 -25 -244 -148 -284 -286 -21 -72 -16 -162 13 -227
46 -106 177 -199 299 -213 137 -16 284 64 361 194 24 42 27 55 27 146 0 89 -3
106 -28 157 -78 159 -246 258 -388 229z"/>
<path d="M6191 8860 c-65 -14 -124 -46 -169 -91 -49 -50 -136 -216 -190 -364
-22 -60 -70 -189 -105 -285 -36 -96 -94 -256 -130 -355 -36 -99 -96 -261 -132
-360 -37 -99 -71 -193 -76 -210 -5 -16 -13 -39 -18 -50 -5 -11 -21 -54 -36
-95 -15 -41 -35 -97 -45 -125 -19 -50 -170 -462 -237 -650 -63 -172 -63 -172
-127 50 -234 818 -435 1195 -636 1195 -35 0 -95 -14 -205 -47 -141 -43 -178
-101 -177 -278 0 -239 106 -634 337 -1270 106 -290 146 -386 222 -536 57 -113
79 -145 138 -205 111 -111 218 -154 385 -154 251 0 415 118 542 390 20 41 76
176 126 300 50 124 188 466 307 760 120 294 225 555 235 580 20 51 291 721
404 1000 87 214 116 316 116 411 0 158 -110 309 -270 369 -62 24 -192 34 -259
20z"/>
<path d="M3909 8462 c-71 -37 -121 -82 -169 -152 -48 -72 -60 -109 -59 -189 1
-135 74 -238 212 -300 151 -69 342 -11 436 131 44 66 56 132 41 216 -34 182
-169 310 -335 319 -62 4 -76 1 -126 -25z"/>
<path d="M6910 6694 c-223 -26 -414 -117 -552 -262 -107 -113 -155 -198 -205
-367 -28 -95 -25 -332 6 -449 76 -288 309 -511 613 -585 131 -32 352 -30 484
4 161 42 269 104 395 227 148 144 229 352 229 586 -1 287 -101 499 -320 674
-124 99 -321 166 -509 172 -58 2 -122 2 -141 0z m228 -414 c40 -11 90 -31 110
-44 151 -97 217 -276 182 -495 -21 -127 -106 -236 -229 -295 -63 -30 -71 -31
-196 -31 -125 0 -132 1 -197 32 -127 60 -198 163 -225 325 -14 79 -14 97 1
173 8 48 27 110 41 138 88 175 299 256 513 197z"/>
<path d="M7860 6617 c0 -13 4 -27 8 -32 5 -6 19 -39 32 -75 13 -36 26 -69 30
-75 4 -5 24 -55 44 -110 21 -55 44 -113 52 -130 14 -32 129 -312 195 -480 22
-55 44 -109 49 -120 6 -11 49 -117 96 -235 47 -118 93 -232 102 -252 l15 -38
217 0 c162 0 220 3 228 13 11 13 78 173 229 547 52 129 101 249 108 265 7 17
27 66 45 110 18 44 38 94 45 110 8 17 28 66 45 110 17 44 38 94 45 110 35 77
115 279 115 291 0 12 -41 14 -242 12 l-243 -3 -142 -425 c-78 -234 -154 -477
-169 -540 -14 -63 -31 -127 -37 -142 -10 -30 -37 -38 -37 -12 0 22 -58 258
-74 302 -8 20 -44 132 -81 247 -37 116 -94 292 -127 393 l-60 182 -244 0 -244
0 0 -23z"/>
<path d="M5049 4789 c-62 -14 -102 -43 -144 -103 -38 -54 -39 -61 -40 -134 0
-66 4 -83 28 -124 65 -111 218 -158 331 -101 80 40 146 143 146 227 0 53 -43
139 -91 180 -66 56 -146 75 -230 55z m159 -86 c51 -37 72 -80 72 -145 0 -99
-45 -166 -126 -187 -50 -13 -129 7 -162 41 -83 89 -63 244 38 296 55 29 136
26 178 -5z"/>
<path d="M8169 4787 c-74 -21 -136 -73 -164 -139 -22 -55 -20 -152 6 -206 44
-91 164 -153 267 -137 56 8 89 25 137 67 127 111 96 320 -58 396 -55 27 -131
34 -188 19z m169 -86 c69 -49 91 -153 52 -240 -24 -52 -39 -65 -102 -86 -44
-15 -52 -15 -96 -1 -79 27 -122 84 -122 163 0 94 30 148 98 180 42 19 133 11
170 -16z"/>
<path d="M4531 4776 c-14 -16 -5 -445 9 -459 4 -5 20 -7 36 -5 l29 3 3 94 c1
52 8 101 14 108 7 8 36 13 83 13 76 0 101 12 89 44 -5 13 -21 16 -83 16 -47 0
-82 5 -89 12 -13 13 -17 104 -4 112 5 3 37 6 73 7 81 3 96 7 101 27 10 39 0
42 -127 42 -93 0 -125 -3 -134 -14z"/>
<path d="M5473 4784 c-16 -7 -19 -359 -3 -369 6 -4 8 -10 5 -15 -3 -5 10 -25
29 -44 62 -61 212 -73 288 -23 59 40 72 82 76 258 5 170 -2 199 -43 199 -13 0
-27 -5 -30 -11 -4 -5 -9 -84 -11 -175 -4 -187 -9 -202 -77 -228 -66 -25 -133
2 -160 64 -6 14 -13 97 -16 185 -6 151 -7 160 -26 162 -11 1 -26 -1 -32 -3z"/>
<path d="M5984 4777 c-2 -7 -3 -114 -2 -237 l3 -225 30 0 30 0 3 170 c1 93 6
173 11 178 5 5 42 -35 82 -90 118 -157 190 -247 206 -256 7 -5 26 -7 41 -5
l27 3 0 235 0 235 -30 0 -30 0 -2 -145 c-3 -152 -7 -190 -23 -190 -5 0 -64 73
-131 163 -68 89 -127 165 -133 169 -18 13 -76 9 -82 -5z"/>
<path d="M6544 4777 c-2 -7 -3 -114 -2 -237 l3 -225 83 -3 c201 -7 307 67 320
223 9 123 -61 216 -182 242 -82 17 -215 17 -222 0z m257 -80 c47 -31 63 -70
63 -147 0 -122 -51 -172 -169 -168 l-70 3 -3 155 c-1 85 0 160 2 167 4 9 27
13 74 13 55 0 76 -5 103 -23z"/>
<path d="M7158 4777 c-7 -8 -31 -61 -52 -118 -21 -57 -58 -155 -83 -218 -27
-70 -40 -118 -35 -123 14 -14 64 -5 72 12 4 8 15 32 24 53 l16 38 103 -3 102
-3 25 -50 c24 -47 28 -50 68 -53 l42 -3 -34 93 c-105 286 -139 367 -160 380
-18 13 -74 9 -88 -5z m59 -89 c13 -17 63 -162 63 -182 0 -9 -11 -21 -25 -26
-33 -12 -115 -1 -122 17 -9 22 51 203 67 203 4 0 12 -6 17 -12z"/>
<path d="M7427 4784 c-4 -4 -7 -18 -7 -30 0 -25 14 -31 80 -36 l35 -3 5 -200
5 -200 35 0 35 0 3 189 c1 119 7 194 13 203 7 7 23 13 38 13 54 0 72 11 69 39
l-3 26 -151 3 c-82 1 -153 -1 -157 -4z"/>
<path d="M7827 4783 c-4 -3 -7 -109 -7 -234 l0 -229 26 -6 c14 -4 29 -3 34 2
11 11 16 446 6 462 -8 13 -48 16 -59 5z"/>
<path d="M8592 4782 c-9 -7 -12 -61 -10 -238 l3 -229 35 0 35 0 5 169 c3 100
9 171 15 172 6 2 42 -38 80 -88 39 -50 97 -126 130 -169 47 -61 67 -80 92 -85
17 -3 36 -3 42 1 15 9 15 461 0 470 -5 4 -21 4 -34 1 -25 -6 -25 -6 -27 -168
-2 -108 -7 -163 -14 -165 -6 -2 -60 60 -119 139 -140 186 -152 198 -189 198
-17 0 -37 -4 -44 -8z"/>
</g>
</svg>
